<?xml version="1.0" encoding="utf-8"?>
<!-- Generator: Adobe Illustrator 16.0.3, SVG Export Plug-In . SVG Version: 6.00 Build 0)  -->
<!DOCTYPE svg PUBLIC "-//W3C//DTD SVG 1.1//EN" "http://www.w3.org/Graphics/SVG/1.1/DTD/svg11.dtd">
<svg version="1.1" id="Layer_1" xmlns="http://www.w3.org/2000/svg" xmlns:xlink="http://www.w3.org/1999/xlink" x="0px" y="0px"
	 width="45.679px" height="83.285px" viewBox="0 0 45.679 83.285" enable-background="new 0 0 45.679 83.285" xml:space="preserve">
<path fill-rule="evenodd" clip-rule="evenodd" fill="#3C8FD0" d="M45.679,22.839C45.679,10.226,35.454,0,22.84,0
	C10.226,0,0,10.226,0,22.839c0,6.819,4.736,15.846,7.375,22.349L22.84,83.285l15.129-37.271
	C40.655,39.399,45.679,29.742,45.679,22.839z"/>
<path fill-rule="evenodd" clip-rule="evenodd" fill="#129D93" stroke="#B2D9F5" stroke-width="0.216" stroke-miterlimit="22.9256" d="
	M22.84,39.784c9.398,0,17.063-7.664,17.063-17.063c0-9.397-7.665-17.063-17.063-17.063c-9.397,0-17.062,7.665-17.062,17.063
	C5.778,32.12,13.442,39.784,22.84,39.784z"/>
<path fill-rule="evenodd" clip-rule="evenodd" fill="#C4D25A" stroke="#FFED22" stroke-width="0.216" stroke-miterlimit="22.9256" d="
	M22.84,31.146c4.641,0,8.425-3.784,8.425-8.425c0-4.64-3.784-8.425-8.425-8.425c-4.64,0-8.425,3.785-8.425,8.425
	C14.415,27.362,18.2,31.146,22.84,31.146z"/>
</svg>
