<?xml version="1.0" encoding="utf-8"?>
<!-- Generator: Adobe Illustrator 16.0.3, SVG Export Plug-In . SVG Version: 6.00 Build 0)  -->
<!DOCTYPE svg PUBLIC "-//W3C//DTD SVG 1.1//EN" "http://www.w3.org/Graphics/SVG/1.1/DTD/svg11.dtd">
<svg version="1.1" id="Layer_1" xmlns="http://www.w3.org/2000/svg" xmlns:xlink="http://www.w3.org/1999/xlink" x="0px" y="0px"
	 width="45.679px" height="83.285px" viewBox="0 0 45.679 83.285" enable-background="new 0 0 45.679 83.285" xml:space="preserve">
<path fill-rule="evenodd" clip-rule="evenodd" fill="#3C8FD0" d="M45.679,22.839C45.679,10.226,35.454,0,22.84,0S0,10.226,0,22.839
	c0,6.819,4.735,15.846,7.374,22.349L22.84,83.285l15.129-37.271C40.654,39.399,45.679,29.742,45.679,22.839z"/>
<g>
	<path fill-rule="evenodd" clip-rule="evenodd" fill="#FFFFFF" d="M28.421,21.033c1.463,0.406,2.544,1.753,2.544,3.341v8.912
		c0,1.747-1.31,3.203-2.996,3.434v11.104c0,0.838-0.686,1.523-1.523,1.523h-7.211c-0.839,0-1.524-0.686-1.524-1.523V36.72
		c-1.686-0.23-2.996-1.687-2.996-3.434v-8.912c0-1.588,1.082-2.935,2.545-3.341c1.375,1.606,3.366,2.617,5.581,2.617
		S27.046,22.64,28.421,21.033z"/>
	<path fill-rule="evenodd" clip-rule="evenodd" fill="#FFFFFF" d="M22.84,21.415c3.133,0,5.688-2.555,5.688-5.688
		s-2.555-5.688-5.688-5.688s-5.688,2.555-5.688,5.688S19.707,21.415,22.84,21.415z"/>
</g>
</svg>
